<svg xmlns="http://www.w3.org/2000/svg" xmlns:xlink="http://www.w3.org/1999/xlink" width="25.873" height="26.065" viewBox="0 0 25.873 26.065">
  <defs>
    <clipPath id="clip-path">
      <rect id="Rectangle_68" data-name="Rectangle 68" width="25.873" height="26.065" fill="#eaeff7"/>
    </clipPath>
  </defs>
  <g id="Group_565" data-name="Group 565" clip-path="url(#clip-path)">
    <path id="Path_127" data-name="Path 127" d="M2.19,1.418c-.5,0-.982.006-1.467,0A.7.7,0,0,1,.054.449.661.661,0,0,1,.685.007q1.083-.013,2.166,0a.693.693,0,0,1,.685.654c.093.864.181,1.728.272,2.593.009.088.024.175.04.287h15a1.383,1.383,0,0,1,1.46,1.147,2.5,2.5,0,0,1-.066.871q-.8,3.8-1.627,7.6a2.107,2.107,0,0,1-2.128,1.7q-5.459,0-10.918,0A2.124,2.124,0,0,1,3.4,12.878c-.207-2.037-.431-4.072-.645-6.108q-.275-2.615-.546-5.23c0-.029-.009-.058-.019-.123M18.93,4.967H4c0,.054.006.1.01.138q.117,1.109.235,2.219.285,2.7.571,5.4a.711.711,0,0,0,.8.717h10.83a.722.722,0,0,0,.8-.652q.574-2.665,1.144-5.331l.535-2.5" transform="translate(2.773 2.772)" fill="#eaeff7"/>
    <path id="Path_128" data-name="Path 128" d="M74.18,280.421a2.122,2.122,0,1,1,2.126-2.117,2.129,2.129,0,0,1-2.126,2.117m0-1.415a.707.707,0,1,0-.7-.7.713.713,0,0,0,.7.7" transform="translate(-65.044 -257.128)" fill="#eaeff7"/>
    <path id="Path_129" data-name="Path 129" d="M220.335,278.294a2.121,2.121,0,1,1-2.126-2.117,2.128,2.128,0,0,1,2.126,2.117m-1.415.009a.707.707,0,1,0-.706.7.713.713,0,0,0,.706-.7" transform="translate(-200.584 -257.128)" fill="#eaeff7"/>
  </g>
</svg>
